<?xml version="1.0" encoding="utf-8"?>
<!-- Generator: Adobe Illustrator 19.0.0, SVG Export Plug-In . SVG Version: 6.00 Build 0)  -->
<svg version="1.1" id="Layer_1" xmlns="http://www.w3.org/2000/svg" xmlns:xlink="http://www.w3.org/1999/xlink" x="0px" y="0px"
	 viewBox="55.6 108.6 612.8 397.9" style="enable-background:new 55.6 108.6 612.8 397.9;" xml:space="preserve">
<style type="text/css">
	.st0{fill:#2EABFF;}
	.st1{fill:#AD0000;}
</style>
<path class="st0" d="M69,401.1c3.9-4.2,8.4-7.3,13.3-9.4c4.9-2.1,10.2-3.2,15.7-3.4c5.6-0.2,11,1,16.2,3.4
	c10.8,4.9,18.4,13,22.6,24.4c4.3,11.4,4.3,22.8,0,34.3c-3.6,8.4-5.1,15.7-4.4,22c0.7,6.3,1.8,11.5,3.4,15.7c2,4.9,4.9,9.1,8.9,12.6
	c-6.9,0.4-14.1-0.2-21.6-1.6c-6.6-1.4-13.7-3.6-21.4-6.6c-7.7-3-15.3-7.8-22.9-14.4c-22-19.2-28.3-40-19.2-62.4
	C61.9,410.2,65.1,405.3,69,401.1z M269.4,486.3c10.3-7.9,19.4-17.4,27.3-28.6c7.9-11.2,14.1-23.8,18.7-37.7c4.6-14,6.9-28.7,6.9-44
	V108.1h-90v275.2v120.6c0.7-0.4,1.4-0.5,2.2-0.5c0.8,0,1.6-0.2,2.2-0.5C248.1,499.7,259,494.2,269.4,486.3z"/>
<path class="st0" d="M459.7,108.6v392.6h-86V108.6H459.7z M531,278.5c6.9-6.3,14.2-14.4,21.9-24.4c7.7-10,14.7-21.9,20.9-35.9v78.6
	v71.3c-5.9-12.6-12.7-23.3-20.4-32.2c-7.7-8.9-15-16.3-21.9-22.3c-8.2-6.6-16.4-12.2-24.6-16.8C514.8,291.9,522.8,285.8,531,278.5z
	 M581.6,146.6c12.8,15.9,23.8,31.5,32.9,46.9c10.5,17.8,19.7,36.5,27.5,56.1V108.1H537.4C554.1,117.9,568.9,130.7,581.6,146.6z"/>
<path class="st1" d="M95.2,401.1c3.9-4.2,8.4-7.3,13.3-9.4c4.9-2.1,10.2-3.2,15.7-3.4c5.6-0.2,11,1,16.2,3.4
	c10.8,4.9,18.4,13,22.6,24.4c4.3,11.4,4.3,22.8,0,34.3c-3.6,8.4-5.1,15.7-4.4,22c0.7,6.3,1.8,11.5,3.4,15.7c2,4.9,4.9,9.1,8.9,12.6
	c-6.9,0.4-14.1-0.2-21.6-1.6c-6.6-1.4-13.7-3.6-21.4-6.6c-7.7-3-15.3-7.8-22.9-14.4c-22-19.2-28.3-40-19.2-62.4
	C88.2,410.2,91.3,405.3,95.2,401.1z M295.6,486.3c10.3-7.9,19.4-17.4,27.3-28.6c7.9-11.2,14.1-23.8,18.7-37.7
	c4.6-14,6.9-28.7,6.9-44V108.1h-90v275.2v120.6c0.7-0.4,1.4-0.5,2.2-0.5c0.8,0,1.6-0.2,2.2-0.5C274.4,499.7,285.3,494.2,295.6,486.3
	z"/>
<path class="st1" d="M485.9,108.6v392.6h-86V108.6H485.9z M557.2,278.5c6.9-6.3,14.2-14.4,21.9-24.4c7.7-10,14.7-21.9,20.9-35.9
	v78.6v71.3c-5.9-12.6-12.7-23.3-20.4-32.2c-7.7-8.9-15-16.3-21.9-22.3c-8.2-6.6-16.4-12.2-24.6-16.8
	C541,291.9,549,285.8,557.2,278.5z M607.9,146.6c12.8,15.9,23.8,31.5,32.9,46.9c10.5,17.8,19.7,36.5,27.5,56.1V108.1H563.6
	C580.3,117.9,595.1,130.7,607.9,146.6z"/>
<path d="M82.3,401.1c3.9-4.2,8.4-7.3,13.3-9.4c4.9-2.1,10.2-3.2,15.7-3.4c5.6-0.2,11,1,16.2,3.4c10.8,4.9,18.4,13,22.6,24.4
	c4.3,11.4,4.3,22.8,0,34.3c-3.6,8.4-5.1,15.7-4.4,22c0.7,6.3,1.8,11.5,3.4,15.7c2,4.9,4.9,9.1,8.9,12.6c-6.9,0.4-14.1-0.2-21.6-1.6
	c-6.6-1.4-13.7-3.6-21.4-6.6c-7.7-3-15.3-7.8-22.9-14.4c-22-19.2-28.3-40-19.2-62.4C75.3,410.2,78.4,405.3,82.3,401.1z M282.7,486.3
	c10.3-7.9,19.4-17.4,27.3-28.6c7.9-11.2,14.1-23.8,18.7-37.7c4.6-14,6.9-28.7,6.9-44V108.1h-90v275.2v120.6c0.7-0.4,1.4-0.5,2.2-0.5
	c0.8,0,1.6-0.2,2.2-0.5C261.5,499.7,272.4,494.2,282.7,486.3z"/>
<path d="M473,108.6v392.6h-86V108.6H473z M544.3,278.5c6.9-6.3,14.2-14.4,21.9-24.4c7.7-10,14.7-21.9,20.9-35.9v78.6v71.3
	c-5.9-12.6-12.7-23.3-20.4-32.2c-7.7-8.9-15-16.3-21.9-22.3c-8.2-6.6-16.4-12.2-24.6-16.8C528.1,291.9,536.1,285.8,544.3,278.5z
	 M595,146.6c12.8,15.9,23.8,31.5,32.9,46.9c10.5,17.8,19.7,36.5,27.5,56.1V108.1H550.7C567.5,117.9,582.2,130.7,595,146.6z"/>
</svg>
