<?xml version="1.0" encoding="utf-8"?>
<!-- Generator: Adobe Illustrator 19.0.0, SVG Export Plug-In . SVG Version: 6.00 Build 0)  -->
<svg version="1.1" id="Layer_1" xmlns="http://www.w3.org/2000/svg" xmlns:xlink="http://www.w3.org/1999/xlink" x="0px" y="0px"
	 viewBox="-89 108.1 612.8 397.9" style="enable-background:new -89 108.1 612.8 397.9;" xml:space="preserve">
<path d="M-62.4,403.1c3.9-4.2,8.4-7.3,13.3-9.4s10.2-3.2,15.7-3.4c5.6-0.2,11,1,16.2,3.4c10.8,4.9,18.4,13,22.6,24.4
	c4.3,11.4,4.3,22.8,0,34.3c-3.6,8.4-5.1,15.7-4.4,22s1.8,11.5,3.4,15.7c2,4.9,4.9,9.1,8.9,12.6c-6.9,0.4-14.1-0.2-21.6-1.6
	c-6.6-1.4-13.7-3.6-21.4-6.6s-15.3-7.8-22.9-14.4c-22-19.2-28.3-40-19.2-62.4C-69.4,412.2-66.3,407.3-62.4,403.1z M138,488.3
	c10.3-7.9,19.4-17.4,27.3-28.6s14.1-23.8,18.7-37.7c4.6-14,6.9-28.7,6.9-44V110.1h-90v275.2V506c0.7-0.4,1.4-0.5,2.2-0.5
	s1.6-0.2,2.2-0.5C116.8,501.8,127.7,496.2,138,488.3z"/>
<path d="M328.3,110.6v392.6h-86V110.6H328.3z M399.6,280.5c6.9-6.3,14.2-14.4,21.9-24.4c7.7-10,14.7-21.9,20.9-35.9v78.6v71.3
	c-5.9-12.6-12.7-23.3-20.4-32.2c-7.7-8.9-15-16.3-21.9-22.3c-8.2-6.6-16.4-12.2-24.6-16.8C383.4,293.9,391.4,287.8,399.6,280.5z
	 M450.3,148.6c12.8,15.9,23.8,31.5,32.9,46.9c10.5,17.8,19.7,36.5,27.5,56.1V110.1H406C422.8,119.9,437.5,132.8,450.3,148.6z"/>
</svg>
