<?xml version="1.0" encoding="utf-8"?>
<!-- Generator: Adobe Illustrator 19.0.0, SVG Export Plug-In . SVG Version: 6.00 Build 0)  -->
<svg version="1.1" id="Layer_1" xmlns="http://www.w3.org/2000/svg" xmlns:xlink="http://www.w3.org/1999/xlink" x="0px" y="0px"
	 viewBox="-151 76 488.9 462" style="enable-background:new -151 76 488.9 462;" xml:space="preserve">
<style type="text/css">
	.st0{fill:#B3B3B3;}
</style>
<path id="XMLID_1_" class="st0" d="M-63.7,227"/>
<path id="XMLID_5_" class="st0" d="M-56.4,212.9c31.7-55.6,91.5-93,160.1-93c101.7,0,184.2,82.5,184.2,184.2s-81,180.3-184.2,184.2
	c-118.2,4.5-173.4-122-173.4-122l-48.4-0.3h1.7c26,99,116.1,172,223.3,172c127.6,0,231-103.4,231-231S234.4,76,106.9,76
	c-86,0-161,47-200.8,116.7l-57.1-58v158.5H5.6l-67.9-67.9C-62.3,225.2-59.1,217.5-56.4,212.9z"/>
<polygon id="XMLID_6_" class="st0" points="68.2,195.4 104.1,195.4 104.1,296.3 201.3,355.7 181.8,386.7 68.2,319.8 "/>
</svg>
