<?xml version="1.0" encoding="utf-8"?>
<!-- Generator: Adobe Illustrator 19.0.0, SVG Export Plug-In . SVG Version: 6.00 Build 0)  -->
<svg version="1.1" id="Layer_1" xmlns="http://www.w3.org/2000/svg" xmlns:xlink="http://www.w3.org/1999/xlink" x="0px" y="0px"
	 viewBox="-61 166 488.9 462" style="enable-background:new -61 166 488.9 462;" xml:space="preserve">
<style type="text/css">
	.st0{fill:#B3B3B3;}
	.st1{fill:#020202;}
	.st2{fill:#FFD9D0;}
</style>
<path id="XMLID_1_" class="st0" d="M-37.2,485.5"/>
<path id="XMLID_4_" class="st0" d="M-23.3,498.6"/>
<path id="XMLID_3_" class="st1" d="M42.3,317c30.3-53.2,87.5-89,153.1-89c97.3,0,176.2,79,176.2,176.2s-77.5,172.5-176.2,176.2
	c-113,4.3-165.8-116.7-165.8-116.7l-46.3-0.3h1.7C9.8,558.2,95.9,628,198.5,628c122.1,0,220.9-98.9,220.9-220.9s-99-221-220.9-221
	c-82.3,0-154.1,45-192.1,111.6l-54.6-55.5v151.6h149.7l-65-65C36.6,328.8,39.7,321.4,42.3,317z"/>
<polygon id="XMLID_2_" points="159.5,301.3 193.8,301.3 193.8,397.8 286.8,454.6 268.1,484.3 159.5,420.3 "/>
<polygon id="XMLID_6_" class="st2" points="148.7,282.2 182.9,282.2 182.9,378.7 276,435.5 257.3,465.2 148.7,401.2 "/>
<path id="XMLID_5_" class="st2" d="M29.5,298.9c30.3-53.2,87.5-89,153.1-89c97.3,0,176.2,79,176.2,176.2s-77.5,172.5-176.2,176.2
	c-113,4.2-165.8-116.8-165.8-116.8l-46.3-0.3h1.7c24.9,94.7,111,164.5,213.6,164.5c122.1,0,220.9-98.9,220.9-220.9
	S307.6,168,185.7,168c-82.3,0-154.1,45-192.1,111.6L-61,224.1v151.6H88.7l-65-65C23.9,310.7,26.9,303.4,29.5,298.9z"/>
</svg>
