<?xml version="1.0" encoding="utf-8"?>
<!-- Generator: Adobe Illustrator 19.0.0, SVG Export Plug-In . SVG Version: 6.00 Build 0)  -->
<svg version="1.1" id="Layer_1" xmlns="http://www.w3.org/2000/svg" xmlns:xlink="http://www.w3.org/1999/xlink" x="0px" y="0px"
	 viewBox="-151 76 488.9 462" style="enable-background:new -151 76 488.9 462;" xml:space="preserve">
<style type="text/css">
	.st0{fill:#B3B3B3;}
	.st1{fill:#FFD9D0;}
</style>
<path id="XMLID_1_" class="st0" d="M-66.2,222.7"/>
<path id="XMLID_4_" class="st0" d="M-52.3,235.8"/>
<path id="XMLID_3_" class="st0" d="M-49.2,218.1c30.8-54,88.9-90.4,155.5-90.4c98.8,0,179,80.2,179,179s-78.7,175.2-179,179
	C-8.5,490.1-62.1,367.2-62.1,367.2l-47-0.3h1.7C-82.2,463.1,5.3,534,109.5,534c124,0,224.4-100.5,224.4-224.4S233.3,85.1,109.5,85.1
	C25.9,85.1-47,130.8-85.6,198.5l-55.5-56.4v154H11l-66-66C-54.9,230.1-51.8,222.6-49.2,218.1z"/>
<polygon id="XMLID_2_" class="st0" points="69.9,202.1 104.7,202.1 104.7,300.2 199.2,357.9 180.2,388 69.9,323 "/>
<polygon id="XMLID_6_" class="st1" points="62,192 96.8,192 96.8,290 191.3,347.7 172.3,377.9 62,312.9 "/>
<path id="XMLID_5_" class="st1" d="M-59.1,209c30.8-54,88.9-90.4,155.5-90.4c98.8,0,179,80.2,179,179s-78.7,175.2-179,179
	C-18.4,480.9-72,358-72,358l-47-0.3h1.7c25.3,96.2,112.8,167.1,217,167.1c124,0,224.4-100.5,224.4-224.4S223.4,76,99.6,76
	C16,76-56.9,121.7-95.5,189.4L-151,133v154H1.1l-66-66C-64.8,221-61.7,213.5-59.1,209z"/>
</svg>
