<?xml version="1.0" encoding="utf-8"?>
<!-- Generator: Adobe Illustrator 19.0.0, SVG Export Plug-In . SVG Version: 6.00 Build 0)  -->
<svg version="1.1" id="Layer_1" xmlns="http://www.w3.org/2000/svg" xmlns:xlink="http://www.w3.org/1999/xlink" x="0px" y="0px"
	 viewBox="-245 66.8 300.3 480.2" style="enable-background:new -245 66.8 300.3 480.2;" xml:space="preserve">
<style type="text/css">
	.st0{fill:#B3B3B3;}
</style>
<path id="XMLID_3_" class="st0" d="M-19.4,346.9v52c0,15.6-12.7,28.3-28.3,28.3h-92c-15.6,0-28.3-12.7-28.3-28.3v-50.8l0,0
	c-0.3-0.2-0.6-0.3-0.9-0.5C-214.4,321.8-245,273-245,217c0-83,67.2-150.2,150.2-150.2S55.4,134,55.4,217c0,55-29.5,103-73.6,129.2
	c-0.1,0.1-0.8,0.4-0.9,0.5L-19.4,346.9z"/>
<path id="XMLID_4_" class="st0" d="M-48.6,442.7h-91.2c-7.9,0-14.4,6.5-14.4,14.4l0,0c0,7.9,6.5,14.4,14.4,14.4h91.2
	c7.9,0,14.4-6.5,14.4-14.4l0,0C-34.3,449.2-40.7,442.7-48.6,442.7z"/>
<path id="XMLID_5_" class="st0" d="M-48.6,487.6h-91.2c-7.9,0-14.4,6.5-14.4,14.4l0,0c0,7.9,6.5,14.4,14.4,14.4
	c0.4,14.1,7.9,24.7,24.2,30.6h46.7c13.5-6.6,19.7-17.1,20.2-30.6c7.9,0,14.4-6.5,14.4-14.4l0,0C-34.3,494.1-40.7,487.6-48.6,487.6z"
	/>
</svg>
