<?xml version="1.0" encoding="utf-8"?>
<!-- Generator: Adobe Illustrator 19.0.0, SVG Export Plug-In . SVG Version: 6.00 Build 0)  -->
<svg version="1.1" id="Layer_1" xmlns="http://www.w3.org/2000/svg" xmlns:xlink="http://www.w3.org/1999/xlink" x="0px" y="0px"
	 viewBox="-154 160.7 301.3 473.3" style="enable-background:new -154 160.7 301.3 473.3;" xml:space="preserve">
<style type="text/css">
	.st0{fill:#FFD9D0;}
</style>
<g>
	<path id="XMLID_6_" d="M73.5,437.8v49.6c0,14.9-12.2,27-27,27h-87.8c-14.9,0-27-12.2-27-27v-48.5l0,0c-0.3-0.2-0.6-0.3-0.9-0.5
		c-43.4-24.6-72.6-71.1-72.6-124.7c0-79.2,64.1-143.3,143.3-143.3s143.5,64.2,143.5,143.4c0,52.4-28.1,98.3-70.3,123.3
		c-0.1,0.1-0.8,0.4-0.9,0.5L73.5,437.8z"/>
	<path id="XMLID_2_" d="M45.6,529.2h-87c-7.5,0-13.7,6.2-13.7,13.7l0,0c0,7.5,6.2,13.7,13.7,13.7h87c7.5,0,13.7-6.2,13.7-13.7l0,0
		C59.2,535.4,53.2,529.2,45.6,529.2z"/>
	<path id="XMLID_1_" d="M45.6,572.1h-87c-7.5,0-13.7,6.2-13.7,13.7l0,0c0,7.5,6.2,13.7,13.7,13.7c0.4,13.4,7.5,23.5,23.1,29.2h44.6
		c12.8-6.3,18.8-16.3,19.3-29.2c7.5,0,13.7-6.2,13.7-13.7l0,0C59.2,578.2,53.2,572.1,45.6,572.1z"/>
</g>
<g>
	<path id="XMLID_3_" class="st0" d="M61.4,428v49.6c0,14.9-12.2,27-27,27h-87.8c-14.9,0-27-12.2-27-27v-48.5l0,0
		c-0.3-0.2-0.6-0.3-0.9-0.5C-124.8,404-154,357.5-154,304c0-79.2,64.1-143.3,143.3-143.3s143.5,64.2,143.5,143.4
		c0,52.4-28.1,98.3-70.3,123.3c-0.1,0.1-0.8,0.4-0.9,0.5L61.4,428z"/>
	<path id="XMLID_4_" class="st0" d="M33.5,519.4h-87c-7.5,0-13.7,6.2-13.7,13.7l0,0c0,7.5,6.2,13.7,13.7,13.7h87
		c7.5,0,13.7-6.2,13.7-13.7l0,0C47.1,525.6,41,519.4,33.5,519.4z"/>
	<path id="XMLID_5_" class="st0" d="M33.5,562.3h-87c-7.5,0-13.7,6.2-13.7,13.7l0,0c0,7.5,6.2,13.7,13.7,13.7
		c0.4,13.4,7.5,23.5,23.1,29.2h44.6c12.8-6.3,18.8-16.3,19.3-29.2c7.5,0,13.7-6.2,13.7-13.7l0,0C47.1,568.5,41,562.3,33.5,562.3z"/>
</g>
</svg>
