<?xml version="1.0" encoding="utf-8"?>
<!-- Generator: Adobe Illustrator 19.0.0, SVG Export Plug-In . SVG Version: 6.00 Build 0)  -->
<svg version="1.1" id="Layer_1" xmlns="http://www.w3.org/2000/svg" xmlns:xlink="http://www.w3.org/1999/xlink" x="0px" y="0px"
	 viewBox="-246 73.7 301.3 473.3" style="enable-background:new -246 73.7 301.3 473.3;" xml:space="preserve">
<style type="text/css">
	.st0{fill:#B3B3B3;}
	.st1{fill:#FFD9D0;}
</style>
<g>
	<path id="XMLID_6_" class="st0" d="M-19.2,352.2v50.6c0,15.2-12.4,27.6-27.6,27.6h-89.6c-15.2,0-27.6-12.4-27.6-27.6v-49.5l0,0
		c-0.3-0.2-0.6-0.3-0.9-0.5c-44.3-25.1-74.1-72.6-74.1-127.2c0-80.8,65.4-146.2,146.2-146.2S53.6,144.9,53.6,225.7
		c0,53.5-28.7,100.3-71.7,125.8c-0.1,0.1-0.8,0.4-0.9,0.5L-19.2,352.2z"/>
	<path id="XMLID_2_" class="st0" d="M-47.6,445.5h-88.8c-7.7,0-14,6.3-14,14l0,0c0,7.7,6.3,14,14,14h88.8c7.7,0,14-6.3,14-14l0,0
		C-33.7,451.8-39.9,445.5-47.6,445.5z"/>
	<path id="XMLID_1_" class="st0" d="M-47.6,489.2h-88.8c-7.7,0-14,6.3-14,14l0,0c0,7.7,6.3,14,14,14c0.4,13.7,7.7,24,23.6,29.8h45.5
		c13.1-6.4,19.2-16.6,19.7-29.8c7.7,0,14-6.3,14-14l0,0C-33.7,495.5-39.9,489.2-47.6,489.2z"/>
</g>
<g>
	<path id="XMLID_3_" class="st1" d="M-26.3,346.4V397c0,15.2-12.4,27.6-27.6,27.6h-89.6c-15.2,0-27.6-12.4-27.6-27.6v-49.5l0,0
		c-0.3-0.2-0.6-0.3-0.9-0.5c-44.3-25.1-74.1-72.6-74.1-127.2c0-80.8,65.4-146.2,146.2-146.2S46.5,139.1,46.5,219.9
		c0,53.5-28.7,100.3-71.7,125.8c-0.1,0.1-0.8,0.4-0.9,0.5L-26.3,346.4z"/>
	<path id="XMLID_4_" class="st1" d="M-54.8,439.6h-88.8c-7.7,0-14,6.3-14,14l0,0c0,7.7,6.3,14,14,14h88.8c7.7,0,14-6.3,14-14l0,0
		C-40.9,446-47.1,439.6-54.8,439.6z"/>
	<path id="XMLID_5_" class="st1" d="M-54.8,483.4h-88.8c-7.7,0-14,6.3-14,14l0,0c0,7.7,6.3,14,14,14c0.4,13.7,7.7,24,23.6,29.8h45.5
		c13.1-6.4,19.2-16.6,19.7-29.8c7.7,0,14-6.3,14-14l0,0C-40.9,489.7-47.1,483.4-54.8,483.4z"/>
</g>
</svg>
