<?xml version="1.0" encoding="utf-8"?>
<!-- Generator: Adobe Illustrator 19.0.0, SVG Export Plug-In . SVG Version: 6.00 Build 0)  -->
<svg version="1.1" id="Layer_1" xmlns="http://www.w3.org/2000/svg" xmlns:xlink="http://www.w3.org/1999/xlink" x="0px" y="0px"
	 viewBox="-14 141 582.3 512" style="enable-background:new -14 141 582.3 512;" xml:space="preserve">
<style type="text/css">
	.st0{fill:#FFD9D0;}
</style>
<path id="XMLID_1_" d="M379.1,349.8c0,0.1,0.1,0.2,0.2,0.2h151.1c0,0,30.3-0.9,34.3,30.9c4,31.6-11.6,36.5-25.7,47.5
	c-0.1,0.1-0.1,0.2,0,0.3c1.8,1.1,14.5,9.4,13.9,29.1c-0.6,20.2-24.2,33.6-26.6,35c-0.1,0.1-0.1,0.2,0,0.3c1.7,1.7,17.6,18,14.9,35.8
	c-2.7,17.8-21.9,26.6-24.1,27.6c-0.1,0-0.1,0.2-0.1,0.3c1.5,2,16.2,21.4,10,45.1c-6.6,24.7-37.7,31.6-38.4,31.7l0,0H242.9l0,0
	c-0.3,0.1-12.5,2.6-26.8-7.5c-14.3-10.2-28.2-8.4-28.4-8.3l0,0h-7h-2c-0.1,0-0.2,0.1-0.2,0.2c0.2,0.6,0.3,1.2,0.4,1.7
	c5.4,23-3.2,33.3-23,33.3H23c-14.1,0.6-23.4-4.2-23.4-19.2V403.7c-0.4-9.6,3.9-15.4,14.2-16.1l148.8-1.6l0,0
	c9.6,1.5,13.6,7.9,14.1,17.5c0,0.1,0.1,0.2,0.2,0.2c2.2-0.3,24.9-3.7,35.8-15.1l0,0c30.2-37.9,56.9-80.7,81-127.1l0,0
	c5.2-22.1-1.5-73.8,0.9-81l0,0c-0.1-22.3,58.8-37.9,70.3-6.7l0,0c16.2,35.7,29,59.9,29.2,73.6C394.5,260.4,379.9,345.3,379.1,349.8z
	"/>
<path id="XMLID_2_" class="st0" d="M365.6,334.6c0,0.1,0.1,0.2,0.2,0.2h151.1c0,0,30.3-0.9,34.3,30.9c4,31.6-11.6,36.5-25.7,47.5
	c-0.1,0.1-0.1,0.2,0,0.3c1.8,1.1,14.5,9.4,13.9,29.1c-0.6,20.2-24.2,33.6-26.6,35c-0.1,0.1-0.1,0.2,0,0.3c1.7,1.7,17.6,18,14.9,35.8
	c-2.7,17.8-21.8,26.5-24,27.5c-0.1,0-0.1,0.2-0.1,0.3c1.5,2,16.2,21.4,10,45.1c-6.6,24.7-37.7,31.6-38.4,31.7l0,0H229.3l0,0
	c-0.3,0.1-12.5,2.6-26.8-7.5c-14.3-10.2-28.2-8.4-28.4-8.3l0,0h-6.9h-2c-0.1,0-0.2,0.1-0.2,0.2c0.2,0.6,0.3,1.2,0.4,1.7
	c5.4,23-3.2,33.3-23,33.3H9.5c-14.1,0.6-23.4-4.2-23.4-19.2v-230c-0.4-9.6,3.9-15.4,14.2-16.1l148.8-1.6l0,0
	c9.6,1.5,13.6,7.9,14.1,17.5c0,0.1,0.1,0.2,0.2,0.2c2.2-0.3,24.9-3.7,35.8-15.1l0,0c30.2-37.9,56.9-80.7,81-127.1l0,0
	c5.2-22.1-1.5-73.8,0.9-81l0,0c-0.1-22.3,58.8-37.9,70.3-6.7l0,0c16.2,35.7,29,59.9,29.2,73.6C380.9,245.2,366.4,330.1,365.6,334.6z
	"/>
</svg>
