<?xml version="1.0" encoding="utf-8"?>
<!-- Generator: Adobe Illustrator 19.0.0, SVG Export Plug-In . SVG Version: 6.00 Build 0)  -->
<svg version="1.1" id="Layer_1" xmlns="http://www.w3.org/2000/svg" xmlns:xlink="http://www.w3.org/1999/xlink" x="0px" y="0px"
	 viewBox="-89.4 55 582.3 512" style="enable-background:new -89.4 55 582.3 512;" xml:space="preserve">
<style type="text/css">
	.st0{fill:#B3B3B3;}
	.st1{fill:#FFD9D0;}
</style>
<path id="XMLID_1_" class="st0" d="M304.4,260.4c0,0.1,0.1,0.2,0.2,0.2h152.9c0,0,30.7-0.9,34.7,31.3c4,32-11.7,36.9-26,48.1
	c-0.1,0.1-0.1,0.2,0,0.3c1.8,1.1,14.7,9.5,14.1,29.5c-0.6,20.4-24.5,34-26.9,35.4c-0.1,0.1-0.1,0.2,0,0.3
	c1.7,1.7,17.8,18.2,15.1,36.2s-22.2,26.9-24.4,27.9c-0.1,0-0.1,0.2-0.1,0.3c1.5,2,16.4,21.7,10.1,45.6c-6.7,25-38.2,32-38.9,32.1
	l0,0H166.5l0,0c-0.3,0.1-12.6,2.6-27.1-7.6c-14.5-10.3-28.5-8.5-28.7-8.4l0,0h-7.1h-2c-0.1,0-0.2,0.1-0.2,0.2
	c0.2,0.6,0.3,1.2,0.4,1.7c5.5,23.3-3.2,33.7-23.3,33.7H-56c-14.3,0.6-23.7-4.3-23.7-19.4V314.9c-0.4-9.7,3.9-15.6,14.4-16.3
	L85.3,297l0,0c9.7,1.5,13.8,8,14.3,17.7c0,0.1,0.1,0.2,0.2,0.2c2.2-0.3,25.2-3.7,36.2-15.3l0,0c30.6-38.4,57.6-81.7,82-128.6l0,0
	c5.3-22.4-1.5-74.7,0.9-82l0,0c-0.1-22.6,59.5-38.4,71.1-6.8l0,0c16.4,36.1,29.3,60.6,29.6,74.5
	C319.9,169.9,305.2,255.8,304.4,260.4z"/>
<path id="XMLID_2_" class="st1" d="M294.8,250.9c0,0.1,0.1,0.2,0.2,0.2h152.9c0,0,30.7-0.9,34.7,31.3c4,32-11.7,36.9-26,48.1
	c-0.1,0.1-0.1,0.2,0,0.3c1.8,1.1,14.7,9.5,14.1,29.5c-0.6,20.4-24.5,34-26.9,35.4c-0.1,0.1-0.1,0.2,0,0.3
	c1.7,1.7,17.8,18.2,15.1,36.2S436.8,459,434.6,460c-0.1,0-0.1,0.2-0.1,0.3c1.5,2,16.4,21.7,10.1,45.6c-6.7,25-38.2,32-38.9,32.1l0,0
	H156.8l0,0c-0.3,0.1-12.6,2.6-27.1-7.6c-14.5-10.3-28.5-8.5-28.7-8.4l0,0H94h-2c-0.1,0-0.2,0.1-0.2,0.2c0.2,0.6,0.3,1.2,0.4,1.7
	c5.5,23.3-3.2,33.7-23.3,33.7H-65.6c-14.3,0.6-23.7-4.3-23.7-19.4V305.4c-0.4-9.7,3.9-15.6,14.4-16.3l150.6-1.6l0,0
	c9.7,1.5,13.8,8,14.3,17.7c0,0.1,0.1,0.2,0.2,0.2c2.2-0.3,25.2-3.7,36.2-15.3l0,0c30.6-38.4,57.6-81.7,82-128.6l0,0
	c5.3-22.4-1.5-74.7,0.9-82l0,0c-0.1-22.6,59.5-38.4,71.1-6.8l0,0c16.4,36.1,29.3,60.6,29.6,74.5
	C310.3,160.4,295.6,246.3,294.8,250.9z"/>
</svg>
